<svg width="298" height="373" viewBox="0 0 298 373" fill="none" xmlns="http://www.w3.org/2000/svg">
<path d="M297.49 0.429993H0.170044V372.08H297.49V0.429993Z" fill="#EB6209"/>
<path d="M67.33 309.04H59.51V305.3C57.87 306.83 54.47 309.94 47.73 309.94C36.57 309.94 29.72 300.88 29.72 289.1C29.72 276.24 38.05 267.69 49.43 267.69C60.02 267.69 65.18 274.49 67.05 276.92L59.46 281.51C58.04 279.36 55.72 275.85 50.17 275.85C42.58 275.85 39.69 282.14 39.69 288.82C39.69 293.35 40.94 297.03 42.86 299.02C44.39 300.66 47.11 301.91 50.17 301.91C51.98 301.91 54.02 301.46 55.66 300.38C58.27 298.68 58.61 296.53 58.89 294.43H49.94V286.84H67.33V309.04Z" fill="white"/>
<path d="M70.62 245.38H29.66V127.12H59.14L106.95 174.93V127.12H147.91V144.96C139.55 156.6 134.61 170.85 134.61 186.25C134.61 201.64 139.55 215.89 147.91 227.54V245.38H118.43L70.62 197.56V245.38Z" fill="white"/>
<path d="M90.72 286.83L87.83 287.28C83.64 288.02 82.39 288.64 82.39 292.38V309.03H73.67V279.41H82.17V282.53C84.1 280.89 86.19 279.58 90.72 279.13V286.83Z" fill="white"/>
<path d="M113.49 287.12C115.13 288.71 115.93 291.25 115.93 294.54C115.93 299.18 113.61 302.98 108.91 302.98C104.04 302.98 101.77 298.85 101.77 294.14C101.77 292.1 102.17 290.06 103.24 288.36C104.43 286.49 105.9 285.64 108.39 285.47C109.64 285.36 111.68 285.42 113.49 287.12ZM124.77 294.2C124.77 288.82 122.11 279.25 110.04 278.57C98.71 277.95 92.99 285.14 92.99 294.2C92.99 305.13 100.58 309.89 108.91 309.89C120.46 309.89 124.77 301.67 124.77 294.2Z" fill="white"/>
<path d="M156.83 309.04H148.11V306.21C147.26 307.17 146.75 307.74 145.16 308.53C143.4 309.44 141.48 309.89 139.55 309.89C137.62 309.89 134.06 309.61 132.02 306.77C130.49 304.62 130.21 302.86 130.21 298.05V279.47H138.99V297.82C138.99 299.12 138.99 300.43 139.67 301.33C140.18 302.01 141.37 302.8 143.13 302.8C143.64 302.8 144.83 302.8 146.13 302.06C148 300.93 148.06 299.45 148.11 297.87V279.46H156.83V309.04Z" fill="white"/>
<path d="M184.92 294.08C184.92 298.72 183.05 303.31 178.8 303.31C177.38 303.31 175.91 302.69 174.89 301.61C173.76 300.36 172.79 298.04 172.79 294.3C172.79 291.52 173.36 288.98 174.6 287.33C175.85 285.63 177.49 284.95 179.07 284.95C179.47 284.95 179.86 285.01 180.26 285.12C183.84 286.04 184.92 290.18 184.92 294.08ZM193.3 294.14C193.3 284.28 187.69 278.79 180.44 278.79C177.15 278.79 174.49 279.98 173.02 281.4C172.74 281.68 172.45 282.02 172.17 282.36V279.58H164.41V319.29H173.19V307.11C175.51 308.53 177.21 309.6 180.5 309.6C190.64 309.6 193.3 300.2 193.3 294.14Z" fill="white"/>
<path d="M205.57 209.94C212.96 209.94 219.55 206.55 223.89 201.25L208.89 186.25H268.02V245.38L252.15 229.5C240.54 241.99 223.97 249.81 205.57 249.81C170.46 249.81 142 221.35 142 186.25C142 151.14 170.46 122.69 205.57 122.69C236.64 122.69 262.48 144.98 268.02 174.44H226.03C221.93 167.38 214.31 162.64 205.57 162.64C192.51 162.64 181.92 173.23 181.92 186.29C181.91 199.35 192.51 209.94 205.57 209.94Z" fill="white"/>
</svg>
